<?xml version="1.0" standalone="no"?>
<!DOCTYPE svg PUBLIC "-//W3C//DTD SVG 20010904//EN"
 "http://www.w3.org/TR/2001/REC-SVG-20010904/DTD/svg10.dtd">
<svg version="1.0" xmlns="http://www.w3.org/2000/svg"
 width="105.000000pt" height="105.000000pt" viewBox="0 0 105.000000 105.000000"
 preserveAspectRatio="xMidYMid meet">
<metadata>
Created by potrace 1.14, written by Peter Selinger 2001-2017
</metadata>
<g transform="translate(0.000000,105.000000) scale(0.100000,-0.100000)"
fill="#000000" stroke="none">
<path d="M5 780 l0 -180 32 0 32 0 3 127 3 127 45 -127 c42 -120 46 -127 71
-127 29 0 37 16 96 188 10 28 21 52 24 52 4 0 7 -44 7 -97 0 -153 -2 -143 32
-143 l30 0 -1 181 0 180 -46 -3 -46 -3 -43 -125 c-24 -69 -45 -129 -47 -134
-3 -9 -14 20 -73 187 l-27 77 -46 0 -46 0 0 -180z"/>
<path d="M410 780 l0 -180 36 0 c33 0 35 2 34 28 -1 15 -2 51 -1 80 l1 52 80
0 80 0 -3 -77 -2 -78 33 -3 c21 -2 32 1 33 10 0 7 1 88 2 181 l2 167 -32 0
c-36 0 -35 3 -34 -87 l0 -53 -80 0 -79 0 -1 28 c0 15 -1 46 -1 70 0 41 0 42
-34 42 l-34 0 0 -180z"/>
<path d="M739 953 c0 -11 0 -325 0 -341 1 -11 23 -13 105 -10 119 3 147 16
180 82 26 53 27 151 1 195 -37 64 -65 76 -181 79 -57 2 -104 0 -105 -5z m198
-69 c29 -18 43 -53 43 -104 0 -84 -37 -121 -124 -125 l-53 -2 0 130 0 129 55
-6 c31 -3 66 -13 79 -22z"/>
<path d="M9 448 c0 -7 -1 -88 -2 -180 l-2 -168 103 0 c103 0 155 12 179 41 30
37 19 120 -19 140 -19 10 -19 12 -3 29 29 32 30 83 2 116 -25 28 -28 29 -141
32 -92 3 -116 1 -117 -10z m200 -52 c6 -4 11 -20 11 -36 0 -38 -23 -50 -95
-50 l-56 0 2 50 3 50 61 -4 c35 -2 67 -6 74 -10z m15 -152 c20 -19 20 -44 2
-69 -11 -15 -27 -19 -82 -19 l-69 -1 -2 53 -2 52 69 0 c49 0 73 -4 84 -16z"/>
<path d="M359 450 c0 -5 0 -80 0 -165 0 -85 0 -162 0 -171 1 -14 15 -15 105
-12 116 3 144 15 181 79 27 47 27 152 -1 199 -37 64 -74 80 -185 80 -59 0 -99
-4 -100 -10z m213 -79 c24 -27 28 -40 28 -90 0 -100 -55 -139 -168 -122 -5 0
-9 57 -9 125 l-1 124 61 -3 c54 -3 65 -7 89 -34z"/>
<path d="M720 280 l0 -180 105 0 c126 0 169 15 186 67 14 43 3 88 -26 112 -24
18 -24 19 -5 36 22 20 27 74 10 105 -15 28 -65 40 -171 40 l-99 0 0 -180z
m191 121 c24 -2 31 -41 13 -68 -12 -20 -23 -23 -77 -23 l-62 0 0 49 0 50 55
-3 c30 -2 62 -4 71 -5z m27 -153 c19 -19 14 -65 -7 -80 -16 -11 -104 -17 -142
-9 -4 1 -5 66 0 94 2 12 136 8 149 -5z"/>
</g>
</svg>
